<?xml version="1.0" standalone="no"?>
<!DOCTYPE svg PUBLIC "-//W3C//DTD SVG 20010904//EN"
 "http://www.w3.org/TR/2001/REC-SVG-20010904/DTD/svg10.dtd">
<svg version="1.0" xmlns="http://www.w3.org/2000/svg"
 width="700.000000pt" height="700.000000pt" viewBox="0 0 700.000000 700.000000"
 preserveAspectRatio="xMidYMid meet">
<metadata>
Created by potrace 1.11, written by Peter Selinger 2001-2013
</metadata>
<g transform="translate(0.000000,700.000000) scale(0.100000,-0.100000)"
fill="#000000" stroke="none">
<path d="M3624 6482 c-66 -31 -154 -72 -195 -91 -143 -66 -264 -123 -269 -127
-5 -5 26 -32 97 -84 27 -19 50 -37 53 -40 3 -3 58 -45 123 -93 64 -49 117 -91
117 -95 0 -4 -27 -63 -61 -131 -43 -88 -60 -133 -57 -153 4 -24 1 -28 -21 -29
-108 -3 -255 -46 -381 -111 -228 -118 -407 -327 -490 -571 -16 -47 -32 -104
-35 -128 -18 -116 -21 -151 -19 -223 20 -658 629 -1118 1269 -959 218 54 445
211 576 400 402 582 111 1380 -572 1562 -75 20 -133 30 -180 31 -34 0 -41 18
-24 56 8 16 41 87 75 157 33 70 60 131 60 135 0 4 -72 61 -159 127 -88 66
-157 123 -153 126 4 4 52 27 107 52 301 137 327 149 326 157 -4 30 -37 90 -50
89 -9 0 -70 -26 -137 -57z"/>
<path d="M1140 5639 c-230 -24 -439 -123 -607 -286 -278 -271 -376 -677 -252
-1048 139 -416 536 -697 974 -689 207 3 382 57 552 172 236 157 410 432 440
697 14 126 5 335 -18 376 -5 11 -8 19 -5 19 9 0 -41 134 -73 200 -96 192 -265
362 -461 460 -158 80 -369 117 -550 99z"/>
<path d="M5707 5644 c-1 -1 -31 -4 -67 -8 -260 -24 -525 -176 -692 -396 -59
-77 -141 -241 -164 -325 -100 -371 -5 -742 258 -1003 189 -187 419 -287 688
-297 47 -1 112 1 145 6 33 5 74 11 90 14 47 7 180 52 238 81 146 74 307 213
393 339 85 127 153 302 169 440 8 70 9 217 1 260 -3 17 -8 46 -11 65 -24 141
-100 311 -195 430 -66 84 -95 113 -185 182 -174 136 -374 205 -613 213 -29 1
-53 1 -55 -1z"/>
<path d="M1158 3384 c-2 -1 -28 -5 -58 -9 -90 -10 -199 -44 -296 -90 -310
-149 -519 -435 -569 -782 -8 -53 -8 -204 0 -263 17 -127 72 -285 137 -392 35
-59 143 -192 180 -223 76 -64 120 -96 183 -132 404 -232 897 -165 1226 166
197 198 293 432 293 711 0 209 -51 385 -162 555 -150 228 -380 384 -648 440
-66 14 -277 28 -286 19z"/>
<path d="M3342 3373 c-506 -80 -873 -525 -855 -1039 14 -424 299 -801 700
-928 203 -64 386 -67 593 -9 335 93 612 373 700 709 149 568 -202 1139 -775
1259 -103 22 -257 25 -363 8z"/>
<path d="M5657 3384 c-1 -1 -22 -5 -47 -9 -336 -48 -646 -284 -778 -591 -72
-170 -87 -247 -86 -434 3 -274 114 -525 319 -718 370 -349 933 -369 1334 -48
38 30 171 168 171 177 0 4 6 14 13 21 59 61 157 288 172 397 3 20 7 47 10 61
3 14 6 73 6 133 1 270 -101 518 -291 707 -42 41 -84 82 -95 90 -180 140 -383
210 -613 214 -62 1 -114 1 -115 0z"/>
</g>
</svg>
