<?xml version="1.0" encoding="utf-8"?>
<!-- Generator: Adobe Illustrator 18.1.1, SVG Export Plug-In . SVG Version: 6.00 Build 0)  -->
<svg version="1.1" id="Layer_1" xmlns="http://www.w3.org/2000/svg" xmlns:xlink="http://www.w3.org/1999/xlink" x="0px" y="0px"
	 width="200px" height="45px" viewBox="0 0 200 45" enable-background="new 0 0 200 45" xml:space="preserve">
<g>
	<path fill="#FFFFFF" d="M21.815,11.408h1.28v16.32c0,3.093-0.854,5.533-2.56,7.32c-1.707,1.785-3.947,2.68-6.72,2.68
		c-1.52,0-3-0.348-4.44-1.039c-1.44-0.695-2.56-1.601-3.36-2.721v-1.84c0.693,1.279,1.78,2.346,3.26,3.199s2.993,1.281,4.54,1.281
		c2.346,0,4.266-0.795,5.76-2.381c1.493-1.587,2.24-3.754,2.24-6.5v-2.68c-0.72,1.467-1.854,2.64-3.4,3.52
		c-1.547,0.88-3.147,1.32-4.8,1.32c-2.614,0-4.854-0.927-6.72-2.78c-1.867-1.854-2.8-4.073-2.8-6.66s0.933-4.806,2.8-6.66
		c1.866-1.853,4.106-2.78,6.72-2.78c1.733,0,3.353,0.434,4.86,1.3c1.506,0.867,2.62,2.06,3.34,3.58V11.408z M5.375,20.448
		c0,2.267,0.82,4.219,2.46,5.86c1.64,1.64,3.586,2.46,5.84,2.46c2.253,0,4.18-0.82,5.78-2.46c1.6-1.641,2.4-3.593,2.4-5.86
		c0-2.266-0.8-4.22-2.4-5.86c-1.6-1.64-3.527-2.46-5.78-2.46c-2.254,0-4.2,0.82-5.84,2.46C6.195,16.228,5.375,18.182,5.375,20.448z"
		/>
	<path fill="#FFFFFF" d="M34.535,12.088c-1.414,0-2.66,0.534-3.74,1.6c-1.08,1.067-1.62,2.307-1.62,3.72v12h-1.28v-18h1.28v2.68
		c0.48-0.906,1.226-1.653,2.24-2.24c1.013-0.586,2.146-0.88,3.4-0.88s2.453,0.427,3.6,1.28v1.6
		C37.241,12.675,35.948,12.088,34.535,12.088z"/>
	<path fill="#FFFFFF" d="M43.575,26.987c-1.84-1.906-2.76-4.126-2.76-6.66c0-2.533,0.933-4.726,2.8-6.58
		c1.866-1.853,4.113-2.78,6.74-2.78c2.626,0,4.866,0.927,6.72,2.78c1.853,1.854,2.78,4.054,2.78,6.6c0,2.547-0.907,4.767-2.72,6.66
		c-1.814,1.894-4.014,2.84-6.6,2.84h-0.36C47.615,29.848,45.415,28.895,43.575,26.987z M58.575,20.428
		c0-2.253-0.807-4.206-2.42-5.86c-1.614-1.653-3.54-2.48-5.78-2.48c-2.24,0-4.18,0.833-5.82,2.5c-1.64,1.667-2.46,3.62-2.46,5.86
		c0,2.24,0.82,4.18,2.46,5.82c1.64,1.64,3.586,2.46,5.84,2.46c2.253,0,4.18-0.82,5.78-2.46
		C57.774,24.628,58.575,22.682,58.575,20.428z"/>
	<path fill="#FFFFFF" d="M78.134,11.408h1.28v18h-1.28v-3.64c-1.36,2.72-3.68,4.08-6.96,4.08c-2.24,0-4.12-0.773-5.64-2.32
		c-1.52-1.546-2.28-3.426-2.28-5.64v-10.48h1.28v10.48c0,1.84,0.646,3.439,1.94,4.8c1.293,1.36,2.86,2.04,4.7,2.04
		s3.46-0.68,4.86-2.04c1.4-1.36,2.1-2.96,2.1-4.8V11.408z"/>
	<path fill="#FFFFFF" d="M83.814,37.407v-26h1.28v4.4c0.72-1.466,1.846-2.64,3.38-3.52c1.533-0.88,3.126-1.32,4.78-1.32
		c2.641,0,4.887,0.927,6.741,2.78c1.854,1.854,2.78,4.074,2.78,6.66c0,2.587-0.926,4.806-2.78,6.66
		c-1.854,1.854-4.1,2.78-6.741,2.78c-1.6,0-3.16-0.434-4.68-1.3s-2.68-2.033-3.48-3.5v12.359H83.814z M85.014,20.448
		c0,2.24,0.82,4.18,2.46,5.82s3.586,2.46,5.84,2.46c2.253,0,4.181-0.82,5.78-2.46s2.401-3.586,2.401-5.84
		c0-2.253-0.807-4.206-2.42-5.86c-1.615-1.653-3.541-2.48-5.781-2.48s-4.18,0.833-5.82,2.5S85.014,18.208,85.014,20.448z"/>
</g>
<g>
	<path fill="#FFFFFF" stroke="#FFFFFF" stroke-width="1.2" stroke-miterlimit="10" d="M114.487,12.047
		c-0.694,0-1.308,0.227-1.84,0.68c-0.534,0.454-0.801,1.014-0.801,1.68c0,0.667,0.301,1.28,0.9,1.84s1.32,1.074,2.16,1.54
		c0.84,0.467,1.686,0.967,2.54,1.5c0.853,0.534,1.58,1.214,2.18,2.04c0.6,0.827,0.9,1.774,0.9,2.84c0,1.574-0.594,2.914-1.78,4.021
		s-2.62,1.66-4.3,1.66c-1.067,0-2.061-0.234-2.98-0.7s-1.594-1.086-2.02-1.86v-1.92c1.013,2.24,2.64,3.36,4.88,3.36
		c1.386,0,2.553-0.427,3.5-1.28c0.946-0.853,1.42-1.806,1.42-2.859s-0.3-1.94-0.9-2.661c-0.6-0.72-1.326-1.333-2.18-1.84
		c-0.854-0.506-1.7-1.006-2.54-1.5c-0.84-0.493-1.56-1.093-2.16-1.8c-0.6-0.706-0.899-1.533-0.899-2.48c0-0.946,0.38-1.746,1.14-2.4
		c0.76-0.653,1.74-0.98,2.94-0.98c1.199,0,2.226,0.467,3.079,1.4v1.64C116.873,12.687,115.793,12.047,114.487,12.047z"/>
	<path fill="#FFFFFF" stroke="#FFFFFF" stroke-width="1.2" stroke-miterlimit="10" d="M126.087,26.987
		c-1.84-1.906-2.76-4.126-2.76-6.66c0-2.533,0.933-4.726,2.8-6.58c1.866-1.853,4.113-2.78,6.74-2.78c2.626,0,4.866,0.927,6.72,2.78
		c1.853,1.854,2.78,4.054,2.78,6.6c0,2.547-0.907,4.767-2.721,6.661s-4.014,2.84-6.6,2.84h-0.36
		C130.127,29.848,127.927,28.895,126.087,26.987z M141.087,20.427c0-2.253-0.807-4.206-2.42-5.86c-1.614-1.653-3.54-2.48-5.78-2.48
		s-4.18,0.833-5.82,2.5c-1.64,1.667-2.46,3.62-2.46,5.86c0,2.24,0.82,4.181,2.46,5.82c1.641,1.64,3.587,2.46,5.841,2.46
		c2.253,0,4.18-0.82,5.779-2.46C140.287,24.628,141.087,22.681,141.087,20.427z"/>
	<path fill="#FFFFFF" stroke="#FFFFFF" stroke-width="1.2" stroke-miterlimit="10" d="M160.946,12.127
		c1.134-0.773,2.514-1.16,4.141-1.16c1.626,0,3.053,0.587,4.279,1.76c1.227,1.174,1.841,2.76,1.841,4.76v11.92h-1.28v-11.92
		c0-1.546-0.507-2.833-1.521-3.86c-1.014-1.026-2.233-1.54-3.659-1.54c-1.428,0-2.694,0.534-3.801,1.6
		c-1.106,1.067-1.66,2.307-1.66,3.72v12h-1.279v-12c0-1.44-0.507-2.686-1.521-3.74c-1.014-1.053-2.239-1.58-3.68-1.58
		s-2.693,0.534-3.76,1.6c-1.067,1.067-1.601,2.307-1.601,3.72v12h-1.279v-18h1.279v2.52c0.533-0.8,1.326-1.493,2.38-2.08
		c1.054-0.586,2.146-0.88,3.28-0.88c1.133,0,2.22,0.394,3.26,1.18s1.801,1.807,2.28,3.06
		C159.047,13.927,159.813,12.901,160.946,12.127z"/>
	<path fill="#FFFFFF" stroke="#FFFFFF" stroke-width="1.2" stroke-miterlimit="10" d="M185.006,29.888h-0.36
		c-2.534,0-4.74-0.953-6.62-2.86c-1.88-1.906-2.82-4.126-2.82-6.66c0-2.533,0.934-4.726,2.801-6.58
		c1.866-1.853,4.173-2.78,6.92-2.78c2.746,0,5.105,1.094,7.08,3.28l-12.561,12.4c1.733,1.387,3.4,2.08,5,2.08
		c1.601,0,3.033-0.366,4.3-1.101c1.267-0.732,2.313-1.713,3.141-2.939v2.04C189.992,28.848,187.698,29.888,185.006,29.888z
		 M184.586,12.127c-2.12,0-4,0.82-5.641,2.46c-1.64,1.64-2.46,3.527-2.46,5.66c0,2.134,0.706,4,2.12,5.601l11.64-11.561
		C188.592,12.847,186.705,12.127,184.586,12.127z"/>
</g>
<g>
</g>
<g>
</g>
<g>
</g>
<g>
</g>
<g>
</g>
<g>
</g>
<g>
</g>
<g>
</g>
<g>
</g>
<g>
</g>
<g>
</g>
<g>
</g>
<g>
</g>
<g>
</g>
<g>
</g>
</svg>
